<svg width="256" height="230" viewBox="0 0 256 230" fill="none" xmlns="http://www.w3.org/2000/svg">
<path d="M5.88897 166.403L90.881 20.8984C101.677 27.2544 156.117 57.3824 164.909 63.1124L79.917 208.625C70.622 220.905 -5.88703 185.038 5.88897 166.395V166.403V166.403Z" fill="#FBBC04"/>
<path d="M250.085 166.402L165.093 20.9059C153.211 1.13194 127.621 -6.05406 106.602 5.62494C85.5827 17.3039 79.1827 42.4619 91.0647 63.1189L176.057 208.633C187.939 228.398 213.53 235.583 234.549 223.905C254.649 212.225 261.967 186.175 250.085 166.419V166.402V166.402Z" fill="#4285F4"/>
<path d="M42.664 229.528C66.2267 229.528 85.328 210.902 85.328 187.924C85.328 164.947 66.2267 146.32 42.664 146.32C19.1013 146.32 0 164.947 0 187.924C0 210.902 19.1013 229.528 42.664 229.528Z" fill="#34A853"/>
</svg>
